<?xml version="1.0" encoding="utf-8"?>
<!-- Uploaded to: SVG Repo, www.svgrepo.com, Generator: SVG Repo Mixer Tools -->
<svg width="800px" height="800px" viewBox="0 0 1024 1024" class="icon"  version="1.1" xmlns="http://www.w3.org/2000/svg"><path d="M691.2 204.8H332.8a102.4 102.4 0 0 0-102.4 102.4v409.6a102.4 102.4 0 0 0 102.4 102.4h358.4a102.4 102.4 0 0 0 102.4-102.4V307.2a102.4 102.4 0 0 0-102.4-102.4z m-358.4 51.2h358.4a51.2 51.2 0 0 1 51.2 51.2v409.6a51.2 51.2 0 0 1-51.2 51.2H332.8a51.2 51.2 0 0 1-51.2-51.2V307.2a51.2 51.2 0 0 1 51.2-51.2z" fill="#ED892D" /><path d="M358.4 153.6a25.6 25.6 0 0 1 25.4208 22.6048L384 179.2v76.8a25.6 25.6 0 0 1-51.0208 2.9952L332.8 256V179.2a25.6 25.6 0 0 1 25.6-25.6zM499.2 153.6a25.6 25.6 0 0 1 25.4208 22.6048L524.8 179.2v76.8a25.6 25.6 0 0 1-51.0208 2.9952L473.6 256V179.2a25.6 25.6 0 0 1 25.6-25.6zM652.8 153.6a25.6 25.6 0 0 1 25.4208 22.6048L678.4 179.2v76.8a25.6 25.6 0 0 1-51.0208 2.9952L627.2 256V179.2a25.6 25.6 0 0 1 25.6-25.6z" fill="#F5C280" /><path d="M793.6 358.4v51.2H256v-51.2z" fill="#ED892D" /><path d="M537.6 467.2a19.2 19.2 0 0 1 2.6112 38.2208L537.6 505.6h-134.4v140.8h217.6V537.6a19.2 19.2 0 0 1 16.5888-19.0208L640 518.4a19.2 19.2 0 0 1 19.0208 16.5888l0.1792 2.6112v147.2h-294.4v-217.6H537.6z" fill="#F5C280" /><path d="M625.2544 448.512a19.2 19.2 0 0 1 31.1552 22.272l-1.664 2.304-139.0336 166.8608-91.1616-60.7744a19.2 19.2 0 0 1 18.816-33.3568l2.4832 1.408 62.4384 41.6 116.9664-140.3136z" fill="#B152D4" /></svg>